<?xml version="1.0" standalone="no"?>
<svg xmlns:xlink="http://www.w3.org/1999/xlink" id="wave" style="transform:rotate(180deg); transition: 0.3s" viewBox="0 0 1440 100" version="1.1" xmlns="http://www.w3.org/2000/svg"><defs><linearGradient id="sw-gradient-0" x1="0" x2="0" y1="1" y2="0"><stop stop-color="rgba(255, 249, 234, 1)" offset="0%"/><stop stop-color="rgba(255, 249, 234, 1)" offset="100%"/></linearGradient></defs><path style="transform:translate(0, 0px); opacity:1" fill="url(#sw-gradient-0)" d="M0,90L26.7,83.3C53.3,77,107,63,160,53.3C213.3,43,267,37,320,38.3C373.3,40,427,50,480,56.7C533.3,63,587,67,640,61.7C693.3,57,747,43,800,43.3C853.3,43,907,57,960,63.3C1013.3,70,1067,70,1120,66.7C1173.3,63,1227,57,1280,45C1333.3,33,1387,17,1440,11.7C1493.3,7,1547,13,1600,13.3C1653.3,13,1707,7,1760,6.7C1813.3,7,1867,13,1920,18.3C1973.3,23,2027,27,2080,23.3C2133.3,20,2187,10,2240,20C2293.3,30,2347,60,2400,63.3C2453.3,67,2507,43,2560,28.3C2613.3,13,2667,7,2720,11.7C2773.3,17,2827,33,2880,45C2933.3,57,2987,63,3040,55C3093.3,47,3147,23,3200,25C3253.3,27,3307,53,3360,65C3413.3,77,3467,73,3520,63.3C3573.3,53,3627,37,3680,25C3733.3,13,3787,7,3813,3.3L3840,0L3840,100L3813.3,100C3786.7,100,3733,100,3680,100C3626.7,100,3573,100,3520,100C3466.7,100,3413,100,3360,100C3306.7,100,3253,100,3200,100C3146.7,100,3093,100,3040,100C2986.7,100,2933,100,2880,100C2826.7,100,2773,100,2720,100C2666.7,100,2613,100,2560,100C2506.7,100,2453,100,2400,100C2346.7,100,2293,100,2240,100C2186.7,100,2133,100,2080,100C2026.7,100,1973,100,1920,100C1866.7,100,1813,100,1760,100C1706.7,100,1653,100,1600,100C1546.7,100,1493,100,1440,100C1386.7,100,1333,100,1280,100C1226.7,100,1173,100,1120,100C1066.7,100,1013,100,960,100C906.7,100,853,100,800,100C746.7,100,693,100,640,100C586.7,100,533,100,480,100C426.7,100,373,100,320,100C266.7,100,213,100,160,100C106.7,100,53,100,27,100L0,100Z"/></svg>